<svg width="287" height="34" viewBox="0 0 287 34" fill="none" xmlns="http://www.w3.org/2000/svg">
<path d="M10.3636 33H0.012784V2.45454H10.5724C13.6051 2.45454 16.2102 3.06605 18.3878 4.28906C20.5753 5.50213 22.2557 7.24716 23.429 9.52415C24.6023 11.8011 25.1889 14.5256 25.1889 17.6974C25.1889 20.8793 24.5973 23.6136 23.4141 25.9006C22.2408 28.1875 20.5455 29.9425 18.3281 31.1655C16.1207 32.3885 13.4659 33 10.3636 33ZM5.54617 28.2124H10.0952C12.223 28.2124 13.9979 27.8246 15.4197 27.049C16.8416 26.2635 17.9105 25.0952 18.6264 23.544C19.3423 21.983 19.7003 20.0341 19.7003 17.6974C19.7003 15.3608 19.3423 13.4219 18.6264 11.8807C17.9105 10.3295 16.8516 9.17117 15.4496 8.40554C14.0575 7.62997 12.3274 7.24219 10.2592 7.24219H5.54617V28.2124ZM30.2077 33V10.0909H35.6069V33H30.2077ZM32.9222 6.83949C32.0671 6.83949 31.3313 6.55611 30.7148 5.98935C30.0984 5.41264 29.7901 4.72159 29.7901 3.91619C29.7901 3.10085 30.0984 2.4098 30.7148 1.84304C31.3313 1.26633 32.0671 0.977982 32.9222 0.977982C33.7873 0.977982 34.5231 1.26633 35.1296 1.84304C35.7461 2.4098 36.0543 3.10085 36.0543 3.91619C36.0543 4.72159 35.7461 5.41264 35.1296 5.98935C34.5231 6.55611 33.7873 6.83949 32.9222 6.83949ZM47.7512 33.4624C46.2995 33.4624 44.992 33.2038 43.8287 32.6868C42.6752 32.1598 41.7605 31.3842 41.0843 30.3601C40.4181 29.3359 40.085 28.0732 40.085 26.5717C40.085 25.2791 40.3237 24.2102 40.801 23.3651C41.2782 22.5199 41.9295 21.8438 42.7548 21.3366C43.5801 20.8295 44.5098 20.4467 45.5439 20.1882C46.5879 19.9197 47.6667 19.7259 48.7804 19.6065C50.1227 19.4673 51.2115 19.343 52.0467 19.2337C52.8819 19.1143 53.4885 18.9354 53.8663 18.6967C54.2541 18.4482 54.448 18.0653 54.448 17.5483V17.4588C54.448 16.3352 54.1149 15.4652 53.4487 14.8487C52.7825 14.2322 51.823 13.924 50.5701 13.924C49.2477 13.924 48.1987 14.2124 47.4231 14.7891C46.6575 15.3658 46.1404 16.0469 45.872 16.8324L40.8308 16.1165C41.2285 14.7244 41.8848 13.5611 42.7995 12.6264C43.7143 11.6818 44.8329 10.9759 46.1554 10.5085C47.4778 10.0312 48.9395 9.79261 50.5403 9.79261C51.644 9.79261 52.7427 9.92188 53.8365 10.1804C54.9302 10.4389 55.9295 10.8665 56.8343 11.4631C57.7392 12.0497 58.465 12.8501 59.0119 13.8643C59.5687 14.8786 59.8471 16.1463 59.8471 17.6676V33H54.6568V29.853H54.4778C54.1497 30.4893 53.6873 31.0859 53.0907 31.6428C52.5041 32.1896 51.7633 32.6321 50.8684 32.9702C49.9835 33.2983 48.9444 33.4624 47.7512 33.4624ZM49.1532 29.495C50.237 29.495 51.1767 29.2812 51.9721 28.8537C52.7676 28.4162 53.3791 27.8395 53.8066 27.1236C54.2441 26.4077 54.4629 25.6271 54.4629 24.782V22.0824C54.2939 22.2216 54.0055 22.3509 53.5978 22.4702C53.2001 22.5895 52.7527 22.6939 52.2555 22.7834C51.7583 22.8729 51.2662 22.9524 50.7789 23.022C50.2917 23.0916 49.8691 23.1513 49.5112 23.201C48.7058 23.3104 47.9849 23.4893 47.3485 23.7379C46.7122 23.9865 46.2101 24.3345 45.8422 24.782C45.4743 25.2195 45.2903 25.7862 45.2903 26.4822C45.2903 27.4766 45.6532 28.2273 46.3791 28.7344C47.1049 29.2415 48.0297 29.495 49.1532 29.495ZM65.5147 33V2.45454H70.9139V13.8793H71.1376C71.416 13.3224 71.8088 12.7308 72.3159 12.1044C72.823 11.468 73.5091 10.9261 74.3741 10.4787C75.2392 10.0213 76.3429 9.79261 77.6852 9.79261C79.4551 9.79261 81.051 10.245 82.4728 11.1499C83.9047 12.0447 85.0382 13.3722 85.8734 15.1321C86.7186 16.8821 87.1412 19.0298 87.1412 21.5753C87.1412 24.0909 86.7285 26.2287 85.9032 27.9886C85.0779 29.7486 83.9544 31.0909 82.5325 32.0156C81.1106 32.9403 79.4998 33.4027 77.7001 33.4027C76.3876 33.4027 75.2988 33.1839 74.4338 32.7464C73.5687 32.3089 72.8727 31.782 72.3457 31.1655C71.8287 30.5391 71.426 29.9474 71.1376 29.3906H70.8244V33H65.5147ZM70.8095 21.5455C70.8095 23.027 71.0183 24.3246 71.4359 25.4382C71.8635 26.5518 72.475 27.4219 73.2704 28.0483C74.0758 28.6648 75.0502 28.973 76.1937 28.973C77.3869 28.973 78.3862 28.6548 79.1916 28.0185C79.997 27.3722 80.6035 26.4922 81.0112 25.3786C81.4288 24.255 81.6376 22.9773 81.6376 21.5455C81.6376 20.1236 81.4338 18.8608 81.0261 17.7571C80.6184 16.6534 80.0119 15.7884 79.2065 15.1619C78.4011 14.5355 77.3968 14.2223 76.1937 14.2223C75.0403 14.2223 74.0609 14.5256 73.2555 15.1321C72.4501 15.7386 71.8386 16.5888 71.421 17.6825C71.0133 18.7763 70.8095 20.0639 70.8095 21.5455ZM101.873 33.4474C99.5763 33.4474 97.5927 32.9702 95.9222 32.0156C94.2617 31.0511 92.984 29.6889 92.0891 27.929C91.1942 26.1591 90.7468 24.076 90.7468 21.6797C90.7468 19.3232 91.1942 17.255 92.0891 15.4751C92.994 13.6854 94.2567 12.2933 95.8775 11.299C97.4982 10.2947 99.4023 9.79261 101.59 9.79261C103.002 9.79261 104.334 10.0213 105.587 10.4787C106.85 10.9261 107.963 11.6222 108.928 12.5668C109.902 13.5114 110.668 14.7145 111.225 16.1761C111.782 17.6278 112.06 19.358 112.06 21.3665V23.022H93.2823V19.3828H106.885C106.875 18.3487 106.651 17.429 106.213 16.6236C105.776 15.8082 105.164 15.1669 104.379 14.6996C103.603 14.2322 102.699 13.9986 101.664 13.9986C100.561 13.9986 99.5913 14.267 98.756 14.804C97.9208 15.331 97.2695 16.027 96.8022 16.892C96.3448 17.7472 96.1112 18.6868 96.1012 19.7109V22.8878C96.1012 24.2202 96.3448 25.3636 96.832 26.3182C97.3192 27.2628 98.0004 27.9886 98.8754 28.4957C99.7504 28.9929 100.775 29.2415 101.948 29.2415C102.733 29.2415 103.444 29.1321 104.081 28.9134C104.717 28.6847 105.269 28.3516 105.736 27.9141C106.203 27.4766 106.556 26.9347 106.795 26.2884L111.836 26.8551C111.518 28.1875 110.912 29.3509 110.017 30.3452C109.132 31.3295 107.998 32.0952 106.616 32.642C105.234 33.179 103.653 33.4474 101.873 33.4474ZM116.866 33V2.45454H136.434V7.09304H122.4V15.3857H135.092V20.0241H122.4V33H116.866ZM140.909 33V10.0909H146.144V13.9091H146.383C146.8 12.5866 147.516 11.5675 148.53 10.8516C149.555 10.1257 150.723 9.76278 152.035 9.76278C152.334 9.76278 152.667 9.7777 153.035 9.80753C153.412 9.82741 153.726 9.86221 153.974 9.91193V14.8786C153.746 14.799 153.383 14.7294 152.885 14.6697C152.398 14.6001 151.926 14.5653 151.469 14.5653C150.484 14.5653 149.599 14.7791 148.814 15.2067C148.038 15.6243 147.427 16.206 146.979 16.9517C146.532 17.6974 146.308 18.5575 146.308 19.532V33H140.909ZM166.76 33.4474C164.463 33.4474 162.479 32.9702 160.809 32.0156C159.148 31.0511 157.871 29.6889 156.976 27.929C156.081 26.1591 155.634 24.076 155.634 21.6797C155.634 19.3232 156.081 17.255 156.976 15.4751C157.881 13.6854 159.143 12.2933 160.764 11.299C162.385 10.2947 164.289 9.79261 166.477 9.79261C167.888 9.79261 169.221 10.0213 170.474 10.4787C171.737 10.9261 172.85 11.6222 173.815 12.5668C174.789 13.5114 175.555 14.7145 176.112 16.1761C176.668 17.6278 176.947 19.358 176.947 21.3665V23.022H158.169V19.3828H171.771C171.761 18.3487 171.538 17.429 171.1 16.6236C170.663 15.8082 170.051 15.1669 169.266 14.6996C168.49 14.2322 167.585 13.9986 166.551 13.9986C165.447 13.9986 164.478 14.267 163.643 14.804C162.808 15.331 162.156 16.027 161.689 16.892C161.232 17.7472 160.998 18.6868 160.988 19.7109V22.8878C160.988 24.2202 161.232 25.3636 161.719 26.3182C162.206 27.2628 162.887 27.9886 163.762 28.4957C164.637 28.9929 165.661 29.2415 166.835 29.2415C167.62 29.2415 168.331 29.1321 168.967 28.9134C169.604 28.6847 170.156 28.3516 170.623 27.9141C171.09 27.4766 171.443 26.9347 171.682 26.2884L176.723 26.8551C176.405 28.1875 175.798 29.3509 174.903 30.3452C174.018 31.3295 172.885 32.0952 171.503 32.642C170.121 33.179 168.54 33.4474 166.76 33.4474ZM191.656 33.4474C189.36 33.4474 187.376 32.9702 185.705 32.0156C184.045 31.0511 182.767 29.6889 181.872 27.929C180.977 26.1591 180.53 24.076 180.53 21.6797C180.53 19.3232 180.977 17.255 181.872 15.4751C182.777 13.6854 184.04 12.2933 185.661 11.299C187.281 10.2947 189.186 9.79261 191.373 9.79261C192.785 9.79261 194.117 10.0213 195.37 10.4787C196.633 10.9261 197.747 11.6222 198.711 12.5668C199.686 13.5114 200.451 14.7145 201.008 16.1761C201.565 17.6278 201.843 19.358 201.843 21.3665V23.022H183.066V19.3828H196.668C196.658 18.3487 196.434 17.429 195.997 16.6236C195.559 15.8082 194.948 15.1669 194.162 14.6996C193.387 14.2322 192.482 13.9986 191.448 13.9986C190.344 13.9986 189.374 14.267 188.539 14.804C187.704 15.331 187.053 16.027 186.585 16.892C186.128 17.7472 185.894 18.6868 185.884 19.7109V22.8878C185.884 24.2202 186.128 25.3636 186.615 26.3182C187.102 27.2628 187.784 27.9886 188.659 28.4957C189.534 28.9929 190.558 29.2415 191.731 29.2415C192.517 29.2415 193.227 29.1321 193.864 28.9134C194.5 28.6847 195.052 28.3516 195.519 27.9141C195.987 27.4766 196.34 26.9347 196.578 26.2884L201.619 26.8551C201.301 28.1875 200.695 29.3509 199.8 30.3452C198.915 31.3295 197.781 32.0952 196.399 32.642C195.017 33.179 193.436 33.4474 191.656 33.4474ZM217.067 33V2.45454H222.601V28.3615H236.054V33H217.067ZM240.618 33V10.0909H246.017V33H240.618ZM243.332 6.83949C242.477 6.83949 241.741 6.55611 241.125 5.98935C240.509 5.41264 240.2 4.72159 240.2 3.91619C240.2 3.10085 240.509 2.4098 241.125 1.84304C241.741 1.26633 242.477 0.977982 243.332 0.977982C244.197 0.977982 244.933 1.26633 245.54 1.84304C246.156 2.4098 246.464 3.10085 246.464 3.91619C246.464 4.72159 246.156 5.41264 245.54 5.98935C244.933 6.55611 244.197 6.83949 243.332 6.83949ZM263.173 10.0909V14.267H249.63V10.0909H263.173ZM253.016 33V7.92827C253.016 6.38707 253.334 5.1044 253.97 4.08025C254.617 3.05611 255.482 2.29048 256.566 1.78338C257.649 1.27628 258.852 1.02273 260.175 1.02273C261.11 1.02273 261.94 1.0973 262.666 1.24645C263.392 1.3956 263.928 1.52983 264.276 1.64915L263.203 5.82528C262.974 5.75568 262.686 5.68608 262.338 5.61648C261.99 5.53693 261.602 5.49716 261.174 5.49716C260.17 5.49716 259.459 5.74077 259.041 6.22798C258.634 6.70525 258.43 7.39133 258.43 8.28622V33H253.016ZM276.682 33.4474C274.385 33.4474 272.401 32.9702 270.731 32.0156C269.07 31.0511 267.793 29.6889 266.898 27.929C266.003 26.1591 265.555 24.076 265.555 21.6797C265.555 19.3232 266.003 17.255 266.898 15.4751C267.803 13.6854 269.065 12.2933 270.686 11.299C272.307 10.2947 274.211 9.79261 276.398 9.79261C277.81 9.79261 279.143 10.0213 280.396 10.4787C281.658 10.9261 282.772 11.6222 283.737 12.5668C284.711 13.5114 285.477 14.7145 286.033 16.1761C286.59 17.6278 286.869 19.358 286.869 21.3665V23.022H268.091V19.3828H281.693C281.683 18.3487 281.46 17.429 281.022 16.6236C280.585 15.8082 279.973 15.1669 279.188 14.6996C278.412 14.2322 277.507 13.9986 276.473 13.9986C275.369 13.9986 274.4 14.267 273.565 14.804C272.729 15.331 272.078 16.027 271.611 16.892C271.153 17.7472 270.92 18.6868 270.91 19.7109V22.8878C270.91 24.2202 271.153 25.3636 271.641 26.3182C272.128 27.2628 272.809 27.9886 273.684 28.4957C274.559 28.9929 275.583 29.2415 276.756 29.2415C277.542 29.2415 278.253 29.1321 278.889 28.9134C279.526 28.6847 280.077 28.3516 280.545 27.9141C281.012 27.4766 281.365 26.9347 281.604 26.2884L286.645 26.8551C286.327 28.1875 285.72 29.3509 284.825 30.3452C283.94 31.3295 282.807 32.0952 281.425 32.642C280.043 33.179 278.462 33.4474 276.682 33.4474Z" fill="#1B1432"/>
</svg>
